<?xml version="1.0" standalone="no"?><!DOCTYPE svg PUBLIC "-//W3C//DTD SVG 1.1//EN" "http://www.w3.org/Graphics/SVG/1.1/DTD/svg11.dtd"><svg class="icon" width="200px" height="200.00px" viewBox="0 0 1024 1024" version="1.1" xmlns="http://www.w3.org/2000/svg"><path d="M510 961a448.47 448.47 0 1 1 316.78-131.22A446.69 446.69 0 0 1 510 961z m0-836a388 388 0 1 0 274.36 662.36A388 388 0 0 0 510 125z" fill="#0368cd" /><path d="M370.7 682.3a30 30 0 0 1-21.21-51.21l278.6-278.6a30 30 0 0 1 42.42 42.42l-278.6 278.6a29.88 29.88 0 0 1-21.21 8.79z" fill="#0368cd" /><path d="M649.3 682.3a29.88 29.88 0 0 1-21.21-8.79l-278.6-278.6a30 30 0 0 1 42.42-42.42l278.6 278.6a30 30 0 0 1-21.21 51.21z" fill="#0368cd" /></svg>